<?xml version="1.0" encoding="UTF-8" standalone="no"?>
<svg
   xmlns:dc="http://purl.org/dc/elements/1.1/"
   xmlns:cc="http://creativecommons.org/ns#"
   xmlns:rdf="http://www.w3.org/1999/02/22-rdf-syntax-ns#"
   xmlns:svg="http://www.w3.org/2000/svg"
   xmlns="http://www.w3.org/2000/svg"
   xmlns:sodipodi="http://sodipodi.sourceforge.net/DTD/sodipodi-0.dtd"
   xmlns:inkscape="http://www.inkscape.org/namespaces/inkscape"
   width="18.062222mm"
   height="18.062222mm"
   viewBox="0 0 63.999998 63.999997"
   id="svg4861"
   version="1.1">
  <g
     inkscape:label="Calque 1"
     inkscape:groupmode="layer"
     id="layer1"
     transform="translate(290.9444,-479.87839)">
    <rect
       style="fill:none;fill-opacity:1;stroke:none;stroke-opacity:1"
       id="rect4136"
       width="64"
       height="64"
       x="-290.9444"
       y="479.87839" />
    <path
       inkscape:connector-curvature="0"
       id="path4827"
       style="font-style:normal;font-variant:normal;font-weight:500;font-stretch:normal;font-size:20px;line-height:125%;font-family:Circula;letter-spacing:0px;word-spacing:0px;fill:#333333;fill-opacity:1;stroke:none;stroke-width:1px;stroke-linecap:butt;stroke-linejoin:miter;stroke-opacity:1"
       d="m -272.65869,535.87838 5.69143,0 0,-21.12 8.02286,0 c 4.45714,0 8.02285,3.56571 8.02285,8.02286 l 0,13.09714 5.69143,0 0,-13.09714 c 0,-4.93715 -2.81143,-8.77715 -6.03428,-10.90286 3.22285,-2.12571 6.03428,-5.96571 6.03428,-10.83429 l 0,-13.16571 -5.69143,0 0,13.16571 c 0,4.38858 -3.56571,8.02286 -8.02285,8.02286 l -8.02286,0 0,-21.18857 -5.69143,0 0,48 z" />
  </g>
</svg>
