<?xml version="1.0" encoding="UTF-8" standalone="no"?>
<!-- Created with Inkscape (http://www.inkscape.org/) -->

<svg
   xmlns:dc="http://purl.org/dc/elements/1.1/"
   xmlns:cc="http://creativecommons.org/ns#"
   xmlns:rdf="http://www.w3.org/1999/02/22-rdf-syntax-ns#"
   xmlns:svg="http://www.w3.org/2000/svg"
   xmlns="http://www.w3.org/2000/svg"
   xmlns:sodipodi="http://sodipodi.sourceforge.net/DTD/sodipodi-0.dtd"
   xmlns:inkscape="http://www.inkscape.org/namespaces/inkscape"
   width="18.062222mm"
   height="18.062222mm"
   viewBox="0 0 63.999998 63.999997"
   id="svg4861"
   version="1.1"
   inkscape:version="0.91 r13725"
   sodipodi:docname="rank_ten-mdpi.svg">
  <defs
     id="defs4863" />
  <sodipodi:namedview
     id="base"
     pagecolor="#ffffff"
     bordercolor="#666666"
     borderopacity="1.0"
     inkscape:pageopacity="0.0"
     inkscape:pageshadow="2"
     inkscape:zoom="4.3299648"
     inkscape:cx="-20.310627"
     inkscape:cy="-15.274431"
     inkscape:document-units="px"
     inkscape:current-layer="layer1"
     showgrid="false"
     fit-margin-top="0"
     fit-margin-left="0"
     fit-margin-right="0"
     fit-margin-bottom="0"
     inkscape:window-width="1855"
     inkscape:window-height="1056"
     inkscape:window-x="65"
     inkscape:window-y="24"
     inkscape:window-maximized="1" />
  <metadata
     id="metadata4866">
    <rdf:RDF>
      <cc:Work
         rdf:about="">
        <dc:format>image/svg+xml</dc:format>
        <dc:type
           rdf:resource="http://purl.org/dc/dcmitype/StillImage" />
        <dc:title></dc:title>
      </cc:Work>
    </rdf:RDF>
  </metadata>
  <g
     inkscape:label="Calque 1"
     inkscape:groupmode="layer"
     id="layer1"
     transform="translate(283.9375,-453.08777)">
    <rect
       style="fill:none;fill-opacity:1;stroke:none;stroke-opacity:1"
       id="rect4136"
       width="64"
       height="64"
       x="-283.9375"
       y="453.08777" />
    <path
       style="font-style:normal;font-variant:normal;font-weight:500;font-stretch:normal;font-size:20px;line-height:125%;font-family:Circula;letter-spacing:0px;word-spacing:0px;fill:#333333;fill-opacity:1;stroke:none;stroke-width:1px;stroke-linecap:butt;stroke-linejoin:miter;stroke-opacity:1"
       d="m -242.47474,461.08778 c -7.33314,0 -13.33297,5.99984 -13.33297,13.33298 l 0,21.33405 c 0,7.33314 5.99983,13.33297 13.33297,13.33297 7.33313,0 13.33297,-5.99983 13.33297,-13.33297 l 0,-21.33405 c 0,-7.33314 -5.99984,-13.33298 -13.33297,-13.33298 z m -24.25734,0.66405 -8.00112,5.33839 0,4.92827 8.00112,-4.06239 0,40.46113 5.53385,0 0,-46.6654 -5.53385,0 z m 24.25734,4.86967 c 4.33322,0 7.79912,3.46604 7.79912,7.79926 l 0,21.33405 c 0,4.33322 -3.4659,7.79929 -7.79912,7.79926 -4.33322,0 -7.79946,-3.46604 -7.79946,-7.79926 l 0,-21.33405 c 0,-4.33322 3.46624,-7.79926 7.79946,-7.79926 z"
       id="path4819"
       inkscape:connector-curvature="0" />
  </g>
</svg>
