<?xml version="1.0" encoding="UTF-8" standalone="no"?>
<!-- Created with Inkscape (http://www.inkscape.org/) -->

<svg
   xmlns:dc="http://purl.org/dc/elements/1.1/"
   xmlns:cc="http://creativecommons.org/ns#"
   xmlns:rdf="http://www.w3.org/1999/02/22-rdf-syntax-ns#"
   xmlns:svg="http://www.w3.org/2000/svg"
   xmlns="http://www.w3.org/2000/svg"
   xmlns:sodipodi="http://sodipodi.sourceforge.net/DTD/sodipodi-0.dtd"
   xmlns:inkscape="http://www.inkscape.org/namespaces/inkscape"
   width="18.062223mm"
   height="18.062223mm"
   viewBox="0 0 64.000005 64.000004"
   id="svg4861"
   version="1.1"
   inkscape:version="0.91 r13725"
   sodipodi:docname="rank_five-mdpi.svg">
  <defs
     id="defs4863" />
  <sodipodi:namedview
     id="base"
     pagecolor="#ffffff"
     bordercolor="#666666"
     borderopacity="1.0"
     inkscape:pageopacity="0.0"
     inkscape:pageshadow="2"
     inkscape:zoom="4.3299648"
     inkscape:cx="-20.310627"
     inkscape:cy="-24.976958"
     inkscape:document-units="px"
     inkscape:current-layer="layer1"
     showgrid="false"
     fit-margin-top="0"
     fit-margin-left="0"
     fit-margin-right="0"
     fit-margin-bottom="0"
     inkscape:window-width="1855"
     inkscape:window-height="1056"
     inkscape:window-x="65"
     inkscape:window-y="24"
     inkscape:window-maximized="1" />
  <metadata
     id="metadata4866">
    <rdf:RDF>
      <cc:Work
         rdf:about="">
        <dc:format>image/svg+xml</dc:format>
        <dc:type
           rdf:resource="http://purl.org/dc/dcmitype/StillImage" />
        <dc:title></dc:title>
      </cc:Work>
    </rdf:RDF>
  </metadata>
  <g
     inkscape:label="Calque 1"
     inkscape:groupmode="layer"
     id="layer1"
     transform="translate(283.9375,-443.38522)">
    <rect
       style="fill:none;fill-opacity:1;stroke:none;stroke-opacity:1"
       id="rect4136"
       width="64"
       height="64"
       x="-283.9375"
       y="443.38522" />
    <path
       inkscape:connector-curvature="0"
       id="path4809"
       style="font-style:normal;font-variant:normal;font-weight:500;font-stretch:normal;font-size:20px;line-height:125%;font-family:Circula;letter-spacing:0px;word-spacing:0px;fill:#333333;fill-opacity:1;stroke:none;stroke-width:1px;stroke-linecap:butt;stroke-linejoin:miter;stroke-opacity:1"
       d="m -265.45863,485.18804 0,0.67606 c 0,7.43662 6.08451,13.52112 13.52113,13.52112 7.43661,0 13.52112,-6.0845 13.52112,-13.52112 l 0,-4.05634 c 0,-7.43662 -6.08451,-13.52112 -13.52112,-13.52112 -2.77184,0 -5.88169,1.08169 -7.57183,2.63661 l 0,-13.92675 19.06478,0 0,-5.61127 -24.67605,0 0,26.83943 6.21972,0 c 1.2845,-2.56901 3.92112,-4.32676 6.96338,-4.32676 4.39436,0 7.90985,3.51549 7.90985,7.90986 l 0,4.05634 c 0,4.39436 -3.51549,7.90986 -7.90985,7.90986 -4.39437,0 -7.90986,-3.5155 -7.90986,-7.90986 l 0,-0.67606 -5.61127,0 z" />
  </g>
</svg>
