<?xml version="1.0" encoding="UTF-8" standalone="no"?>
<!-- Created with Inkscape (http://www.inkscape.org/) -->

<svg
   xmlns:dc="http://purl.org/dc/elements/1.1/"
   xmlns:cc="http://creativecommons.org/ns#"
   xmlns:rdf="http://www.w3.org/1999/02/22-rdf-syntax-ns#"
   xmlns:svg="http://www.w3.org/2000/svg"
   xmlns="http://www.w3.org/2000/svg"
   xmlns:sodipodi="http://sodipodi.sourceforge.net/DTD/sodipodi-0.dtd"
   xmlns:inkscape="http://www.inkscape.org/namespaces/inkscape"
   width="18.062223mm"
   height="18.062223mm"
   viewBox="0 0 64.000005 64.000004"
   id="svg4861"
   version="1.1"
   inkscape:version="0.91 r13725"
   sodipodi:docname="rank_eight-mdpi.svg">
  <defs
     id="defs4863" />
  <sodipodi:namedview
     id="base"
     pagecolor="#ffffff"
     bordercolor="#666666"
     borderopacity="1.0"
     inkscape:pageopacity="0.0"
     inkscape:pageshadow="2"
     inkscape:zoom="4.3299648"
     inkscape:cx="-20.310627"
     inkscape:cy="-20.71207"
     inkscape:document-units="px"
     inkscape:current-layer="layer1"
     showgrid="false"
     fit-margin-top="0"
     fit-margin-left="0"
     fit-margin-right="0"
     fit-margin-bottom="0"
     inkscape:window-width="1855"
     inkscape:window-height="1056"
     inkscape:window-x="65"
     inkscape:window-y="24"
     inkscape:window-maximized="1" />
  <metadata
     id="metadata4866">
    <rdf:RDF>
      <cc:Work
         rdf:about="">
        <dc:format>image/svg+xml</dc:format>
        <dc:type
           rdf:resource="http://purl.org/dc/dcmitype/StillImage" />
        <dc:title></dc:title>
      </cc:Work>
    </rdf:RDF>
  </metadata>
  <g
     inkscape:label="Calque 1"
     inkscape:groupmode="layer"
     id="layer1"
     transform="translate(283.9375,-447.65012)">
    <rect
       style="fill:none;fill-opacity:1;stroke:none;stroke-opacity:1"
       id="rect4136"
       width="64"
       height="64"
       x="-283.9375"
       y="447.65012" />
    <path
       inkscape:connector-curvature="0"
       id="path4815"
       style="font-style:normal;font-variant:normal;font-weight:500;font-stretch:normal;font-size:20px;line-height:125%;font-family:Circula;letter-spacing:0px;word-spacing:0px;fill:#333333;fill-opacity:1;stroke:none;stroke-width:1px;stroke-linecap:butt;stroke-linejoin:miter;stroke-opacity:1"
       d="m -251.97084,503.65011 c 7.26668,0 13.2,-5.66668 13.2,-13.4 0,-4 -2.26665,-8.06668 -5.8,-10.6 3.53335,-2.53332 5.8,-6.53332 5.8,-10.6 0,-7.73332 -5.93332,-13.39999 -13.2,-13.39999 -7.26664,0 -13.13332,5.66667 -13.13332,13.39999 0,4.06668 2.26668,8.06668 5.8,10.6 -3.53332,2.53332 -5.8,6.6 -5.8,10.6 0,7.73332 5.86668,13.4 13.13332,13.4 z m 0,-5.53332 c -4.4,0 -7.6,-3.6 -7.6,-7.86668 0,-4.06668 3.13336,-7.8 7.6,-7.8 4.53336,0 7.66668,3.73332 7.66668,7.8 0,4.26668 -3.2,7.86668 -7.66668,7.86668 z m 0,-21.2 c -4.46664,0 -7.6,-3.73335 -7.6,-7.86668 0,-4.2 3.2,-7.86667 7.6,-7.86667 4.46668,0 7.66668,3.66667 7.66668,7.86667 0,4.13333 -3.13332,7.86668 -7.66668,7.86668 z" />
  </g>
</svg>
