<?xml version="1.0" encoding="UTF-8" standalone="no"?>
<!-- Created with Inkscape (http://www.inkscape.org/) -->

<svg
   xmlns:dc="http://purl.org/dc/elements/1.1/"
   xmlns:cc="http://creativecommons.org/ns#"
   xmlns:rdf="http://www.w3.org/1999/02/22-rdf-syntax-ns#"
   xmlns:svg="http://www.w3.org/2000/svg"
   xmlns="http://www.w3.org/2000/svg"
   xmlns:sodipodi="http://sodipodi.sourceforge.net/DTD/sodipodi-0.dtd"
   xmlns:inkscape="http://www.inkscape.org/namespaces/inkscape"
   width="64"
   height="64"
   viewBox="0 0 64.000002 64.000001"
   id="svg4981"
   version="1.1"
   inkscape:version="0.91 r13725"
   sodipodi:docname="suit_spade-mdpi.svg">
  <defs
     id="defs4983" />
  <sodipodi:namedview
     id="base"
     pagecolor="#ffffff"
     bordercolor="#666666"
     borderopacity="1.0"
     inkscape:pageopacity="0.0"
     inkscape:pageshadow="2"
     inkscape:zoom="1.16"
     inkscape:cx="-11.33075"
     inkscape:cy="15.512903"
     inkscape:document-units="px"
     inkscape:current-layer="g4283"
     showgrid="false"
     fit-margin-top="0"
     fit-margin-left="0"
     fit-margin-right="0"
     fit-margin-bottom="0"
     units="px"
     inkscape:window-width="1855"
     inkscape:window-height="1056"
     inkscape:window-x="65"
     inkscape:window-y="24"
     inkscape:window-maximized="1" />
  <metadata
     id="metadata4986">
    <rdf:RDF>
      <cc:Work
         rdf:about="">
        <dc:format>image/svg+xml</dc:format>
        <dc:type
           rdf:resource="http://purl.org/dc/dcmitype/StillImage" />
        <dc:title />
      </cc:Work>
    </rdf:RDF>
  </metadata>
  <g
     inkscape:label="Calque 1"
     inkscape:groupmode="layer"
     id="layer1"
     transform="translate(1292.7949,-300.62387)">
    <rect
       style="fill:none;fill-opacity:1;stroke:none;stroke-opacity:1"
       id="rect5529"
       width="64"
       height="64"
       x="-1292.7949"
       y="300.62387" />
    <g
       id="g4283"
       transform="matrix(0.43652883,0,0,0.43652883,-722.98699,222.16082)">
      <path
         style="fill:#31415a;fill-opacity:1"
         inkscape:connector-curvature="0"
         d="m -1230.7801,191.51997 c -0.77,-0.43 -1.71,-0.43 -2.48,0 -2.3,1.3 -56.32,32.12 -56.32,69.56 0,16.59 13.49,30.08 30.07,30.08 7.37,0 14.15,-2.69 19.41,-7.14 -2.78,16.65 -8.45,26.99 -8.52,27.12 -0.44,0.79001 -0.43,1.74 0.02,2.52 0.45,0.77 1.28,1.24 2.18,1.24 l 28.82,0 c 0.89,0 1.72,-0.47 2.18,-1.24 0.45,-0.78 0.46,-1.73 0.03,-2.52 -0.08,-0.13 -5.74,-10.48 -8.53,-27.13 5.26,4.45 12.04,7.14 19.41,7.14 16.58,0 30.07,-13.49 30.07,-30.08 0,-37.43 -54.03,-68.25 -56.34,-69.55 z"
         id="path5" />
    </g>
  </g>
</svg>
