<?xml version="1.0" encoding="UTF-8" standalone="no"?>
<!-- Created with Inkscape (http://www.inkscape.org/) -->

<svg
   xmlns:dc="http://purl.org/dc/elements/1.1/"
   xmlns:cc="http://creativecommons.org/ns#"
   xmlns:rdf="http://www.w3.org/1999/02/22-rdf-syntax-ns#"
   xmlns:svg="http://www.w3.org/2000/svg"
   xmlns="http://www.w3.org/2000/svg"
   xmlns:sodipodi="http://sodipodi.sourceforge.net/DTD/sodipodi-0.dtd"
   xmlns:inkscape="http://www.inkscape.org/namespaces/inkscape"
   width="210mm"
   height="297mm"
   viewBox="0 0 744.09448819 1052.3622047"
   id="svg2"
   version="1.1"
   inkscape:version="0.91 r13725"
   sodipodi:docname="dessin.svg">
  <defs
     id="defs4" />
  <sodipodi:namedview
     id="base"
     pagecolor="#ffffff"
     bordercolor="#666666"
     borderopacity="1.0"
     inkscape:pageopacity="0.0"
     inkscape:pageshadow="2"
     inkscape:zoom="3.52"
     inkscape:cx="-1558.2589"
     inkscape:cy="766.06308"
     inkscape:document-units="px"
     inkscape:current-layer="layer1"
     showgrid="false"
     inkscape:window-width="1855"
     inkscape:window-height="1056"
     inkscape:window-x="65"
     inkscape:window-y="24"
     inkscape:window-maximized="1" />
  <metadata
     id="metadata7">
    <rdf:RDF>
      <cc:Work
         rdf:about="">
        <dc:format>image/svg+xml</dc:format>
        <dc:type
           rdf:resource="http://purl.org/dc/dcmitype/StillImage" />
        <dc:title />
      </cc:Work>
    </rdf:RDF>
  </metadata>
  <g
     inkscape:label="Calque 1"
     inkscape:groupmode="layer"
     id="layer1">
    <rect
       style="fill:#333333;fill-opacity:1;stroke:none;stroke-opacity:1"
       id="rect4136"
       width="64"
       height="64"
       x="-1510.8928"
       y="143.63007" />
    <path
       inkscape:connector-curvature="0"
       id="path4803"
       style="font-style:normal;font-variant:normal;font-weight:500;font-stretch:normal;font-size:20px;line-height:125%;font-family:Circula;letter-spacing:0px;word-spacing:0px;fill:#333333;fill-opacity:1;stroke:none;stroke-width:1px;stroke-linecap:butt;stroke-linejoin:miter;stroke-opacity:1"
       d="m -1608.5089,112.97557 7.8,0 0,-1.66 -6.14,0 0,-1.06 c 0,-3.22 6.34,-3.08 6.34,-7.48 0,-2.2 -1.8,-3.999999 -4,-3.999999 -2.2,0 -4,1.799999 -4,3.999999 l 0,0.2 1.66,0 0,-0.2 c 0,-1.3 1.04,-2.34 2.34,-2.34 1.3,0 2.34,1.04 2.34,2.34 0,3.2 -6.34,2.94 -6.34,7.48 l 0,2.72 z" />
    <path
       inkscape:connector-curvature="0"
       id="path4805"
       style="font-style:normal;font-variant:normal;font-weight:500;font-stretch:normal;font-size:20px;line-height:125%;font-family:Circula;letter-spacing:0px;word-spacing:0px;fill:#333333;fill-opacity:1;stroke:none;stroke-width:1px;stroke-linecap:butt;stroke-linejoin:miter;stroke-opacity:1"
       d="m -1608.4589,133.97557 0,0.24 c 0,2.18 1.76,3.96 3.94,3.96 2.18,0 3.96,-1.86 3.96,-4.04 0,-1.28 -0.68,-2.4 -1.74,-3.16 1.06,-0.76 1.74,-1.88 1.74,-3.16 0,-2.18 -1.78,-4.04 -3.96,-4.04 -2.18,0 -3.94,1.78 -3.94,3.96 l 0,0.24 1.66,0 0,-0.24 c 0,-1.26 1,-2.3 2.28,-2.3 1.26,0 2.3,1.1 2.3,2.38 0,1.26 -0.98,2.34 -2.3,2.34 l -1.48,0 0,1.66 1.48,0 c 1.32,0 2.3,1.1 2.3,2.32 0,1.28 -1.04,2.38 -2.3,2.38 -1.28,0 -2.28,-1.04 -2.28,-2.3 l 0,-0.24 -1.66,0 z" />
    <path
       inkscape:connector-curvature="0"
       id="path4807"
       style="font-style:normal;font-variant:normal;font-weight:500;font-stretch:normal;font-size:20px;line-height:125%;font-family:Circula;letter-spacing:0px;word-spacing:0px;fill:#333333;fill-opacity:1;stroke:none;stroke-width:1px;stroke-linecap:butt;stroke-linejoin:miter;stroke-opacity:1"
       d="m -1603.3689,162.97557 1.66,0 0,-4.16 1.6,0 0,-1.66 -1.6,0 0,-8.18 -1.96,0 -5.24,8.08 0,1.76 5.54,0 0,4.16 z m -3.74,-5.82 3.74,-5.7 0,5.7 -3.74,0 z" />
    <path
       inkscape:connector-curvature="0"
       id="path4809"
       style="font-style:normal;font-variant:normal;font-weight:500;font-stretch:normal;font-size:20px;line-height:125%;font-family:Circula;letter-spacing:0px;word-spacing:0px;fill:#333333;fill-opacity:1;stroke:none;stroke-width:1px;stroke-linecap:butt;stroke-linejoin:miter;stroke-opacity:1"
       d="m -1608.5089,183.97557 0,0.2 c 0,2.2 1.8,4 4,4 2.2,0 4,-1.8 4,-4 l 0,-1.2 c 0,-2.2 -1.8,-4 -4,-4 -0.82,0 -1.74,0.32 -2.24,0.78 l 0,-4.12 5.64,0 0,-1.66 -7.3,0 0,7.94 1.84,0 c 0.38,-0.76 1.16,-1.28 2.06,-1.28 1.3,0 2.34,1.04 2.34,2.34 l 0,1.2 c 0,1.3 -1.04,2.34 -2.34,2.34 -1.3,0 -2.34,-1.04 -2.34,-2.34 l 0,-0.2 -1.66,0 z" />
    <path
       inkscape:connector-curvature="0"
       id="path4811"
       style="font-style:normal;font-variant:normal;font-weight:500;font-stretch:normal;font-size:20px;line-height:125%;font-family:Circula;letter-spacing:0px;word-spacing:0px;fill:#333333;fill-opacity:1;stroke:none;stroke-width:1px;stroke-linecap:butt;stroke-linejoin:miter;stroke-opacity:1"
       d="m -1604.5089,213.17557 c 2.2,0 4,-1.8 4,-4 l 0,-0.74 c 0,-2.2 -1.8,-4 -4,-4 -0.9,0 -1.72,0.34 -2.34,0.84 l 0,-2.44 c 0,-1.28 1.04,-2.4 2.34,-2.4 1.3,0 2.34,1.04 2.34,2.34 l 0,0.2 1.66,0 0,-0.2 c 0,-2.2 -1.8,-4 -4,-4 -2.2,0 -4,1.86 -4,4.06 l 0,6.34 c 0,2.2 1.8,4 4,4 z m 0,-1.66 c -1.3,0 -2.34,-1.04 -2.34,-2.34 l 0,-0.74 c 0,-1.28 1.04,-2.34 2.34,-2.34 1.3,0 2.34,1.06 2.34,2.34 l 0,0.74 c 0,1.3 -1.04,2.34 -2.34,2.34 z" />
    <path
       inkscape:connector-curvature="0"
       id="path4813"
       style="font-style:normal;font-variant:normal;font-weight:500;font-stretch:normal;font-size:20px;line-height:125%;font-family:Circula;letter-spacing:0px;word-spacing:0px;fill:#333333;fill-opacity:1;stroke:none;stroke-width:1px;stroke-linecap:butt;stroke-linejoin:miter;stroke-opacity:1"
       d="m -1607.5489,237.97557 1.66,0 0,-1 c 0,-5.18 5.08,-6.36 5.08,-11.34 l 0,-1.66 -7.4,0 0,1.66 5.74,0 c 0,3.94 -5.08,5.66 -5.08,11.34 l 0,1 z" />
    <path
       inkscape:connector-curvature="0"
       id="path4815"
       style="font-style:normal;font-variant:normal;font-weight:500;font-stretch:normal;font-size:20px;line-height:125%;font-family:Circula;letter-spacing:0px;word-spacing:0px;fill:#333333;fill-opacity:1;stroke:none;stroke-width:1px;stroke-linecap:butt;stroke-linejoin:miter;stroke-opacity:1"
       d="m -1604.5189,263.17557 c 2.18,0 3.96,-1.7 3.96,-4.02 0,-1.2 -0.68,-2.42 -1.74,-3.18 1.06,-0.76 1.74,-1.96 1.74,-3.18 0,-2.32 -1.78,-4.02 -3.96,-4.02 -2.18,0 -3.94,1.7 -3.94,4.02 0,1.22 0.68,2.42 1.74,3.18 -1.06,0.76 -1.74,1.98 -1.74,3.18 0,2.32 1.76,4.02 3.94,4.02 z m 0,-1.66 c -1.32,0 -2.28,-1.08 -2.28,-2.36 0,-1.22 0.94,-2.34 2.28,-2.34 1.36,0 2.3,1.12 2.3,2.34 0,1.28 -0.96,2.36 -2.3,2.36 z m 0,-6.36 c -1.34,0 -2.28,-1.12 -2.28,-2.36 0,-1.26 0.96,-2.36 2.28,-2.36 1.34,0 2.3,1.1 2.3,2.36 0,1.24 -0.94,2.36 -2.3,2.36 z" />
    <path
       inkscape:connector-curvature="0"
       id="path4817"
       style="font-style:normal;font-variant:normal;font-weight:500;font-stretch:normal;font-size:20px;line-height:125%;font-family:Circula;letter-spacing:0px;word-spacing:0px;fill:#333333;fill-opacity:1;stroke:none;stroke-width:1px;stroke-linecap:butt;stroke-linejoin:miter;stroke-opacity:1"
       d="m -1608.5089,283.97557 0,0.2 c 0,2.2 1.8,4 4,4 2.2,0 4,-1.86 4,-4.06 l 0,-6.34 c 0,-2.2 -1.8,-4 -4,-4 -2.2,0 -4,1.8 -4,4 l 0,0.9 c 0,2.2 1.8,4 4,4 0.9,0 1.72,-0.32 2.34,-0.84 l 0,2.28 c 0,1.28 -1.04,2.4 -2.34,2.4 -1.3,0 -2.34,-1.04 -2.34,-2.34 l 0,-0.2 -1.66,0 z m 4,-2.96 c -1.3,0 -2.34,-1.06 -2.34,-2.34 l 0,-0.9 c 0,-1.3 1.04,-2.34 2.34,-2.34 1.3,0 2.34,1.04 2.34,2.34 l 0,0.9 c 0,1.28 -1.04,2.34 -2.34,2.34 z" />
    <path
       style="font-style:normal;font-variant:normal;font-weight:500;font-stretch:normal;font-size:20px;line-height:125%;font-family:Circula;letter-spacing:0px;word-spacing:0px;fill:#333333;fill-opacity:1;stroke:none;stroke-width:1px;stroke-linecap:butt;stroke-linejoin:miter;stroke-opacity:1"
       d="m -1601.67,298.77539 c -2.2,0 -4,1.8 -4,4 l 0,6.40039 c 0,2.2 1.8,4 4,4 2.2,0 4,-1.8 4,-4 l 0,-6.40039 c 0,-2.2 -1.8,-4 -4,-4 z m -7.2774,0.19922 -2.4004,1.60156 0,1.47852 2.4004,-1.21875 0,12.13867 1.6602,0 0,-14 -1.6602,0 z m 7.2774,1.46094 c 1.3,0 2.3398,1.03984 2.3398,2.33984 l 0,6.40039 c 0,1.3 -1.0398,2.33985 -2.3398,2.33984 -1.3,0 -2.3399,-1.03984 -2.3399,-2.33984 l 0,-6.40039 c 0,-1.3 1.0399,-2.33984 2.3399,-2.33984 z"
       id="path4819"
       inkscape:connector-curvature="0" />
    <path
       inkscape:connector-curvature="0"
       id="path4823"
       style="font-style:normal;font-variant:normal;font-weight:500;font-stretch:normal;font-size:20px;line-height:125%;font-family:Circula;letter-spacing:0px;word-spacing:0px;fill:#333333;fill-opacity:1;stroke:none;stroke-width:1px;stroke-linecap:butt;stroke-linejoin:miter;stroke-opacity:1"
       d="m -1607.0089,338.17557 1,0 c 2.2,0 4,-1.8 4,-4 l 0,-10.2 -5,0 0,1.66 3.34,0 0,8.54 c 0,1.3 -1.04,2.34 -2.34,2.34 l -1,0 0,1.66 z" />
    <path
       inkscape:connector-curvature="0"
       id="path4825"
       style="font-style:normal;font-variant:normal;font-weight:500;font-stretch:normal;font-size:20px;line-height:125%;font-family:Circula;letter-spacing:0px;word-spacing:0px;fill:#333333;fill-opacity:1;stroke:none;stroke-width:1px;stroke-linecap:butt;stroke-linejoin:miter;stroke-opacity:1"
       d="m -1605.3489,365.97557 1.66,0 0,-2.9 c 1.82,-0.38 3.18,-1.98 3.18,-3.9 l 0,-6.4 c 0,-2.2 -1.8,-4 -4,-4 -2.2,0 -4,1.8 -4,4 l 0,6.4 c 0,1.92 1.36,3.52 3.16,3.9 l 0,2.9 z m 3.18,-6.8 c 0,1.3 -1.04,2.34 -2.34,2.34 -1.3,0 -2.34,-1.04 -2.34,-2.34 l 0,-6.4 c 0,-1.3 1.04,-2.34 2.34,-2.34 1.3,0 2.34,1.04 2.34,2.34 l 0,6.4 z" />
    <path
       inkscape:connector-curvature="0"
       id="path4827"
       style="font-style:normal;font-variant:normal;font-weight:500;font-stretch:normal;font-size:20px;line-height:125%;font-family:Circula;letter-spacing:0px;word-spacing:0px;fill:#333333;fill-opacity:1;stroke:none;stroke-width:1px;stroke-linecap:butt;stroke-linejoin:miter;stroke-opacity:1"
       d="m -1608.5089,387.97557 1.66,0 0,-6.16 2.34,0 c 1.3,0 2.34,1.04 2.34,2.34 l 0,3.82 1.66,0 0,-3.82 c 0,-1.44 -0.82,-2.56 -1.76,-3.18 0.94,-0.62 1.76,-1.74 1.76,-3.16 l 0,-3.84 -1.66,0 0,3.84 c 0,1.28 -1.04,2.34 -2.34,2.34 l -2.34,0 0,-6.18 -1.66,0 0,14 z" />
    <path
       inkscape:connector-curvature="0"
       id="path4829"
       style="font-style:normal;font-variant:normal;font-weight:500;font-stretch:normal;font-size:20px;line-height:125%;font-family:Circula;letter-spacing:0px;word-spacing:0px;fill:#333333;fill-opacity:1;stroke:none;stroke-width:1px;stroke-linecap:butt;stroke-linejoin:miter;stroke-opacity:1"
       d="m -1608.5089,412.97557 1.66,0 0,-6.16 4.68,0 0,6.16 1.66,0 0,-10.2 c 0,-2.2 -1.8,-4 -4,-4 -2.2,0 -4,1.8 -4,4 l 0,10.2 z m 1.66,-7.82 0,-2.38 c 0,-1.3 1.04,-2.34 2.34,-2.34 1.3,0 2.34,1.04 2.34,2.34 l 0,2.38 -4.68,0 z" />
  </g>
</svg>
