<?xml version="1.0" encoding="UTF-8" standalone="no"?>
<svg
   xmlns:dc="http://purl.org/dc/elements/1.1/"
   xmlns:cc="http://creativecommons.org/ns#"
   xmlns:rdf="http://www.w3.org/1999/02/22-rdf-syntax-ns#"
   xmlns:svg="http://www.w3.org/2000/svg"
   xmlns="http://www.w3.org/2000/svg"
   xmlns:xlink="http://www.w3.org/1999/xlink"
   xmlns:sodipodi="http://sodipodi.sourceforge.net/DTD/sodipodi-0.dtd"
   xmlns:inkscape="http://www.inkscape.org/namespaces/inkscape"
   width="512"
   height="340"
   id="svg2"
   version="1.1"
   inkscape:version="0.91 r13725"
   sodipodi:docname="flag-hdpi-land.svg">
  <metadata
     id="metadata73">
    <rdf:RDF>
      <cc:Work
         rdf:about="">
        <dc:format>image/svg+xml</dc:format>
        <dc:type
           rdf:resource="http://purl.org/dc/dcmitype/StillImage" />
        <dc:title></dc:title>
      </cc:Work>
    </rdf:RDF>
  </metadata>
  <sodipodi:namedview
     pagecolor="#ffffff"
     bordercolor="#666666"
     borderopacity="1"
     objecttolerance="10"
     gridtolerance="10"
     guidetolerance="10"
     inkscape:pageopacity="0"
     inkscape:pageshadow="2"
     inkscape:window-width="1855"
     inkscape:window-height="1056"
     id="namedview71"
     showgrid="false"
     inkscape:zoom="2.6749821"
     inkscape:cx="241.96618"
     inkscape:cy="164.85189"
     inkscape:window-x="65"
     inkscape:window-y="24"
     inkscape:window-maximized="1"
     inkscape:current-layer="svg2"
     fit-margin-top="0"
     fit-margin-left="0"
     fit-margin-right="0"
     fit-margin-bottom="0" />
  <defs
     id="defs4">
    <polygon
       id="pt"
       points="-0.16245985,0 0,-0.5 0.16245985,0 "
       transform="scale(0.0616,0.0616)"
       style="fill:#ffffff" />
    <g
       id="star">
      <use
         xlink:href="#pt"
         transform="matrix(-0.80901699,-0.58778525,0.58778525,-0.80901699,0,0)"
         id="use8"
         x="0"
         y="0"
         width="1235"
         height="650" />
      <use
         xlink:href="#pt"
         transform="matrix(0.30901699,-0.95105652,0.95105652,0.30901699,0,0)"
         id="use10"
         x="0"
         y="0"
         width="1235"
         height="650" />
      <use
         xlink:href="#pt"
         id="use12"
         x="0"
         y="0"
         width="1235"
         height="650" />
      <use
         xlink:href="#pt"
         transform="matrix(0.30901699,0.95105652,-0.95105652,0.30901699,0,0)"
         id="use14"
         x="0"
         y="0"
         width="1235"
         height="650" />
      <use
         xlink:href="#pt"
         transform="matrix(-0.80901699,0.58778525,-0.58778525,-0.80901699,0,0)"
         id="use16"
         x="0"
         y="0"
         width="1235"
         height="650" />
    </g>
    <g
       id="s5">
      <use
         xlink:href="#star"
         x="-0.252"
         id="use19"
         y="0"
         width="1235"
         height="650" />
      <use
         xlink:href="#star"
         x="-0.126"
         id="use21"
         y="0"
         width="1235"
         height="650" />
      <use
         xlink:href="#star"
         id="use23"
         x="0"
         y="0"
         width="1235"
         height="650" />
      <use
         xlink:href="#star"
         x="0.126"
         id="use25"
         y="0"
         width="1235"
         height="650" />
      <use
         xlink:href="#star"
         x="0.252"
         id="use27"
         y="0"
         width="1235"
         height="650" />
    </g>
    <g
       id="s6">
      <use
         xlink:href="#s5"
         x="-0.063000001"
         id="use30"
         y="0"
         width="1235"
         height="650" />
      <use
         xlink:href="#star"
         x="0.315"
         id="use32"
         y="0"
         width="1235"
         height="650" />
    </g>
    <g
       id="x4">
      <use
         xlink:href="#s6"
         id="use35"
         x="0"
         y="0"
         width="1235"
         height="650" />
      <use
         xlink:href="#s5"
         y="0.054000001"
         id="use37"
         x="0"
         width="1235"
         height="650" />
      <use
         xlink:href="#s6"
         y="0.108"
         id="use39"
         x="0"
         width="1235"
         height="650" />
      <use
         xlink:href="#s5"
         y="0.162"
         id="use41"
         x="0"
         width="1235"
         height="650" />
    </g>
    <g
       id="u">
      <use
         xlink:href="#x4"
         y="-0.21600001"
         id="use44"
         x="0"
         width="1235"
         height="650" />
      <use
         xlink:href="#x4"
         id="use46"
         x="0"
         y="0"
         width="1235"
         height="650" />
      <use
         xlink:href="#s6"
         y="0.21600001"
         id="use48"
         x="0"
         width="1235"
         height="650" />
    </g>
    <rect
       id="stripe"
       width="1235"
       height="50"
       x="0"
       y="0"
       style="fill:#b22234" />
  </defs>
  <rect
     width="512"
     height="339.99991"
     id="rect51"
     x="0"
     y="-2.8421709e-14"
     style="fill:#ffffff" />
  <use
     xlink:href="#stripe"
     id="use53"
     transform="matrix(0.41457488,0,0,0.52307676,0,10e-5)"
     x="0"
     y="0"
     width="1235"
     height="650" />
  <use
     xlink:href="#stripe"
     y="100"
     id="use55"
     transform="matrix(0.41457488,0,0,0.52307676,0,10e-5)"
     x="0"
     width="1235"
     height="650" />
  <use
     xlink:href="#stripe"
     y="200"
     id="use57"
     transform="matrix(0.41457488,0,0,0.52307676,0,10e-5)"
     x="0"
     width="1235"
     height="650" />
  <use
     xlink:href="#stripe"
     y="300"
     id="use59"
     transform="matrix(0.41457488,0,0,0.52307676,0,10e-5)"
     x="0"
     width="1235"
     height="650" />
  <use
     xlink:href="#stripe"
     y="400"
     id="use61"
     transform="matrix(0.41457488,0,0,0.52307676,0,10e-5)"
     x="0"
     width="1235"
     height="650" />
  <use
     xlink:href="#stripe"
     y="500"
     id="use63"
     transform="matrix(0.41457488,0,0,0.52307676,0,10e-5)"
     x="0"
     width="1235"
     height="650" />
  <use
     xlink:href="#stripe"
     y="600"
     id="use65"
     transform="matrix(0.41457488,0,0,0.52307676,0,10e-5)"
     x="0"
     width="1235"
     height="650" />
  <g
     id="g3052"
     transform="matrix(4,0,0,4,0,67.99999)">
    <rect
       style="fill:#3c3b6e"
       y="-16.999996"
       x="0"
       id="rect67"
       height="45.769218"
       width="63.999996" />
    <use
       height="650"
       width="1235"
       y="0"
       x="0"
       id="use69"
       transform="matrix(84.210521,0,0,84.999978,31.999998,5.8846277)"
       xlink:href="#u" />
  </g>
</svg>
